<?xml version="1.0" encoding="utf-8"?>
<!-- Generator: Adobe Illustrator 21.1.0, SVG Export Plug-In . SVG Version: 6.00 Build 0)  -->
<svg version="1.1" xmlns="http://www.w3.org/2000/svg" xmlns:xlink="http://www.w3.org/1999/xlink" x="0px" y="0px" width="33px"
	 height="37px" viewBox="0 0 33 37" style="enable-background:new 0 0 33 37;" xml:space="preserve">
<style type="text/css">
	.st0{fill-rule:evenodd;clip-rule:evenodd;fill:url(#SVGID_1_);}
	.st1{fill-rule:evenodd;clip-rule:evenodd;fill:#FFFFFF;}
	.st2{fill:none;stroke:#3F3F3F;stroke-miterlimit:10;}
	.st3{display:none;}
	.st4{display:inline;}
	.st5{fill:#E84044;}
	.st6{fill:#FFD207;}
	.st7{fill:#020203;}
	.st8{fill:#E3E3E2;}
	.st9{fill:#EFD93B;}
	.st10{fill:#BF1818;}
	.st11{fill:#FFFFFF;}
	.st12{fill:#4E4E4E;}
	.st13{fill:#045797;}
	.st14{display:inline;fill:#035698;}
	.st15{display:inline;fill:#2FA836;}
	.st16{display:inline;fill:#D11C1E;}
	.st17{fill:none;stroke:#020203;stroke-width:0.1764;stroke-linecap:round;stroke-linejoin:round;}
	.st18{fill:#959CA1;}
	.st19{font-family:'FontAwesome';}
	.st20{font-size:22.3983px;}
	.st21{fill:#025696;}
	.st22{display:inline;fill:#BCA108;}
	.st23{display:inline;fill:#FFFFFF;}
	.st24{display:inline;fill:#BF1818;}
</style>
<g id="shadow">
	
		<radialGradient id="SVGID_1_" cx="17.4957" cy="32.1763" r="9.8615" gradientTransform="matrix(1.1863 0 0 0.8304 -4.1277 4.9601)" gradientUnits="userSpaceOnUse">
		<stop  offset="0" style="stop-color:#000000"/>
		<stop  offset="7.690746e-02" style="stop-color:#1D1D1D;stop-opacity:0.9231"/>
		<stop  offset="0.2736" style="stop-color:#606060;stop-opacity:0.7264"/>
		<stop  offset="0.4602" style="stop-color:#999999;stop-opacity:0.5398"/>
		<stop  offset="0.6312" style="stop-color:#C5C5C5;stop-opacity:0.3688"/>
		<stop  offset="0.7836" style="stop-color:#E5E5E5;stop-opacity:0.2164"/>
		<stop  offset="0.9117" style="stop-color:#F8F8F8;stop-opacity:8.830374e-02"/>
		<stop  offset="1" style="stop-color:#FFFFFF;stop-opacity:0"/>
	</radialGradient>
	<ellipse class="st0" cx="16.6" cy="31.7" rx="16" ry="4.7"/>
</g>
<g id="badge">
	<g id="bg">
		<g>
			<path class="st1" d="M28.7,2.8H4.3C2.8,2.8,1.5,4,1.5,5.5v19.3c0,1.5,1.3,2.8,2.8,2.8h7.8l4.7,4.6l4.7-4.6h7.2
				c1.6,0,2.8-1.2,2.8-2.8V5.5C31.5,4,30.2,2.8,28.7,2.8z"/>
		</g>
		<g>
			<path class="st2" d="M28.7,2.8H4.3C2.8,2.8,1.5,4,1.5,5.5v19.3c0,1.5,1.3,2.8,2.8,2.8h7.8l4.7,4.6l4.7-4.6h7.2
				c1.6,0,2.8-1.2,2.8-2.8V5.5C31.5,4,30.2,2.8,28.7,2.8z"/>
		</g>
	</g>
</g>
<g id="ico" class="st3">
	<g class="st4">
		<path class="st5" d="M17.8,5.6c-0.3-0.5-0.9-0.9-1.5-0.9c-0.6,0-1.2,0.3-1.5,0.9l-9.2,16c-0.3,0.5-0.3,1.2,0,1.8
			c0.3,0.5,0.9,0.9,1.5,0.9h18.4c0.6,0,1.2-0.3,1.5-0.9c0.3-0.5,0.3-1.2,0-1.8L17.8,5.6z"/>
		<polygon class="st6" points="7.5,22.2 16.3,7.1 25,22.2 		"/>
		<path class="st7" d="M15,17.1c0,0.6,0.5,1,1.2,1c0.3,0,0.6-0.1,0.9-0.3c0.2-0.2,0.4-0.4,0.4-0.7v-4.8c0-0.3-0.1-0.5-0.4-0.7
			c-0.2-0.2-0.5-0.3-0.9-0.3c-0.3,0-0.6,0.1-0.9,0.3C15.2,11.7,15,12,15,12.2L15,17.1L15,17.1z"/>
		<path class="st7" d="M15,20.5c0,0.6,0.5,1,1.2,1c0.3,0,0.6-0.1,0.9-0.3c0.2-0.2,0.4-0.4,0.4-0.7V20c0-0.3-0.1-0.5-0.4-0.7
			c-0.2-0.2-0.5-0.3-0.9-0.3c-0.3,0-0.6,0.1-0.9,0.3C15.2,19.5,15,19.8,15,20L15,20.5L15,20.5z"/>
	</g>
</g>
<g id="Lager_11" class="st3">
	<g class="st4">
		<path class="st5" d="M17.8,5.6c-0.3-0.6-1-0.8-1.5-0.8c-0.7,0-1.2,0.3-1.5,0.8L5.5,21.6c-0.3,0.6-0.3,1.2,0,1.8
			c0.3,0.6,1,0.8,1.5,0.8h18.5c0.7,0,1.2-0.3,1.5-0.8c0.3-0.6,0.3-1.2,0-1.8L17.8,5.6z"/>
		<polygon class="st8" points="7.4,22.3 16.3,7.1 25.1,22.3 		"/>
		<path class="st7" d="M15,19.7c0,0.7,0.6,1.2,1.2,1.2c0.3,0,0.7-0.1,0.8-0.4c0.3-0.3,0.4-0.6,0.4-0.8v-7.2c0-0.3-0.1-0.7-0.4-0.8
			c-0.3-0.3-0.6-0.4-0.8-0.4s-0.7,0.1-0.8,0.4c-0.3,0.3-0.4,0.6-0.4,0.8V19.7z"/>
	</g>
</g>
<g id="Lager_6" class="st3">
	<g id="Lager_2_1_" class="st4">
		<rect x="5.2" y="4.1" class="st9" width="21.8" height="21.8"/>
	</g>
	<g id="Layer_1_2_" class="st4">
		<path class="st7" d="M11.5,15h-0.7l-0.1,2.5H7.1l1.5,2.2c0.5-0.4,1.2-0.4,1.9-0.1c0.5,0.3,1.2,0.3,1.8,0c0.5-0.3,1.2-0.3,1.8,0
			c0.5,0.3,1.2,0.3,1.8,0s1.2-0.3,1.8,0c0.5,0.3,1.2,0.3,1.8,0c0.5-0.3,1.2-0.3,1.8,0s1.2,0.3,1.8,0c0.7-0.3,1.4-0.3,2,0.1
			c0.3-0.5,0.3-1.1,0.3-1.6H24l-0.3-0.5h-0.8v-6.8h-0.5v6.8h-0.5l-0.3-1H16l0.7-2.3h-1.5l-0.7,2.3h-1.4L13,14.9h-1v-4.8h-0.5V15z"/>
	</g>
</g>
<g id="Lager_25" class="st3">
	<g id="Lager_2_2_" class="st4">
		<rect x="5.2" y="4.1" class="st10" width="21.8" height="21.8"/>
	</g>
	<g id="Layer_1_1_" class="st4">
		<path class="st11" d="M11.5,15h-0.7l-0.1,2.5H7.1l1.5,2.2c0.5-0.4,1.2-0.4,1.9-0.1c0.5,0.3,1.2,0.3,1.8,0c0.5-0.3,1.2-0.3,1.8,0
			c0.5,0.3,1.2,0.3,1.8,0s1.2-0.3,1.8,0c0.5,0.3,1.2,0.3,1.8,0c0.5-0.3,1.2-0.3,1.8,0s1.2,0.3,1.8,0c0.7-0.3,1.4-0.3,2,0.1
			c0.3-0.5,0.3-1.1,0.3-1.6H24l-0.3-0.5h-0.8v-6.8h-0.5v6.8h-0.5l-0.3-1H16l0.7-2.3h-1.5l-0.7,2.3h-1.4L13,14.9h-1v-4.8h-0.5V15z"/>
	</g>
</g>
<g id="Lager_26" class="st3">
	<g id="Lager_2_3_" class="st4">
		<rect x="5.2" y="4.1" class="st12" width="21.8" height="21.8"/>
	</g>
	<g id="Layer_1_3_" class="st4">
		<path class="st11" d="M11.5,15h-0.7l-0.1,2.5H7.1l1.5,2.2c0.5-0.4,1.2-0.4,1.9-0.1c0.5,0.3,1.2,0.3,1.8,0c0.5-0.3,1.2-0.3,1.8,0
			c0.5,0.3,1.2,0.3,1.8,0s1.2-0.3,1.8,0c0.5,0.3,1.2,0.3,1.8,0c0.5-0.3,1.2-0.3,1.8,0s1.2,0.3,1.8,0c0.7-0.3,1.4-0.3,2,0.1
			c0.3-0.5,0.3-1.1,0.3-1.6H24l-0.3-0.5h-0.8v-6.8h-0.5v6.8h-0.5l-0.3-1H16l0.7-2.3h-1.5l-0.7,2.3h-1.4L13,14.9h-1v-4.8h-0.5V15z"/>
	</g>
</g>
<g id="Lager_20" class="st3">
	<g class="st4">
		<rect x="5.2" y="4.1" class="st11" width="21.8" height="21.8"/>
		<g>
			<g id="Lager_3">
			</g>
			<g id="Lager_1_1_">
				<path class="st13" d="M20.6,12.1c0.5,2.6-0.5,2.7-3.1,3.8c-2.6,1.1-3.5,9.9-3.5,9.9H5.9c0,0-0.1-8.4,7.5-10.2
					c5.2-1.2,4.1-2.3,4.8-4.1c0.4-1,2.7-2.2,4.8-3.1c1.5-0.7,3.5-1.1,4.1-1.1V4.1H5.2v21.7H27v-18C20.6,9.8,20.3,11.3,20.6,12.1z"/>
				<path class="st11" d="M16,11.8l-0.7-0.4l0.4-0.4c0.3-0.1,0.4-0.5,0.3-0.7c-0.1-0.3-0.5-0.3-0.8,0l-0.7,0.5l0,0l-1.6-1l1.6-1l0,0
					l0.8,0.5c0.3,0.1,0.5,0.1,0.8,0c0.1-0.3,0-0.5-0.3-0.7l-0.5-0.3L16,8.1c0.3-0.1,0.4-0.5,0.3-0.7c-0.1-0.3-0.4-0.3-0.8-0.1
					l-0.7,0.4l-0.1-0.5c0-0.3-0.3-0.5-0.5-0.5s-0.4,0.3-0.4,0.7l0.1,0.8l-1.6,1V7.3l0,0L13,6.9c0.3-0.1,0.5-0.4,0.4-0.7S13,6,12.7,6
					l-0.5,0.3V5.5c0-0.3-0.3-0.5-0.4-0.5c-0.3,0-0.4,0.3-0.4,0.5v0.8l-0.5-0.1c-0.3-0.1-0.7,0-0.7,0.1s0.1,0.5,0.4,0.7l0.8,0.3v1.9
					l-1.6-1V8.1v-1c0-0.3-0.1-0.7-0.4-0.7S8.7,6.7,8.7,7v0.5L8,7.1C7.8,7,7.4,7,7.2,7.2c-0.1,0.3,0,0.5,0.3,0.7l0.7,0.4L7.8,8.8
					C7.5,9,7.5,9.3,7.6,9.4c0.1,0.1,0.5,0.1,0.8,0L9,8.9l1.6,1l-1.6,1l-0.8-0.5c-0.3-0.1-0.5-0.1-0.8,0c-0.1,0.3,0,0.5,0.3,0.7
					L8,11.2l-0.7,0.4c-0.3,0.1-0.4,0.5-0.3,0.7c0.1,0.3,0.4,0.3,0.8,0.1L8.6,12l0.1,0.5c0,0.3,0.3,0.5,0.5,0.5
					c0.3,0,0.4-0.3,0.4-0.7l-0.1-1l0,0l1.6-1v1.8l-0.8,0.4c-0.3,0.1-0.5,0.4-0.4,0.7c0.1,0.3,0.4,0.3,0.7,0.3l0.4-0.3v1
					c0,0.3,0.3,0.5,0.4,0.5c0.3,0,0.4-0.3,0.4-0.5v-1l0.5,0.1c0.3,0.1,0.7,0,0.7-0.1s-0.1-0.5-0.4-0.7l-1-0.3l0,0v-1.8l1.6,1l-0.1,1
					c0,0.3,0.1,0.7,0.4,0.7s0.5-0.1,0.5-0.5v-0.5l0.8,0.4c0.3,0.1,0.7,0.1,0.8-0.1C16.4,12.2,16.2,12,16,11.8z"/>
			</g>
			<g id="Lager_2">
			</g>
		</g>
	</g>
</g>
<g id="Lager_24" class="st3">
	<rect x="5.2" y="4.1" class="st14" width="21.8" height="21.8"/>
	<g class="st4">
		<polygon class="st11" points="17.7,24.6 17.7,16.8 19.1,16.1 19.1,24.6 		"/>
		<polygon class="st11" points="8.3,19.4 10.8,16.9 9.8,15.3 6.5,16.3 		"/>
		<path class="st11" d="M25.5,10.4c0.3,0.4,0.1,1-0.4,1.2l-11.7,6.7c-0.4,0.3-1,0.1-1.2-0.4l-2.5-4.4c-0.1-0.3-0.1-0.4-0.1-0.7
			c0-0.3,0.3-0.4,0.4-0.5l11.7-6.7c0.4-0.3,1-0.1,1.2,0.4L25.5,10.4z"/>
	</g>
</g>
<g id="Lager_22" class="st3">
	<rect x="5.2" y="4.1" class="st15" width="21.8" height="21.8"/>
	<g class="st4">
		<polygon class="st11" points="25.7,13.3 22.4,14.1 22.4,16 25.7,16.8 		"/>
		<path class="st11" d="M6.5,12.6c0-0.5,0.4-1,1-1h13.4c0.3,0,0.4,0.1,0.7,0.3c0.1,0.1,0.3,0.4,0.3,0.7v5.1c0,0.5-0.4,1-1,1H7.5
			c-0.5,0-1-0.4-1-1V12.6z"/>
	</g>
</g>
<g id="Lager_27" class="st3">
	<rect x="5.2" y="4.1" class="st16" width="21.8" height="21.8"/>
	<g class="st4">
		<polygon class="st11" points="25.7,13.3 22.4,14.1 22.4,16 25.7,16.8 		"/>
		<path class="st11" d="M6.5,12.6c0-0.5,0.4-1,1-1h13.4c0.3,0,0.4,0.1,0.7,0.3c0.1,0.1,0.3,0.4,0.3,0.7v5.1c0,0.5-0.4,1-1,1H7.5
			c-0.5,0-1-0.4-1-1V12.6z"/>
	</g>
</g>
<g id="Lager_7" class="st3">
	<g class="st4">
		<circle class="st5" cx="16.6" cy="15.6" r="11"/>
		<circle class="st6" cx="16.7" cy="15.6" r="8.4"/>
		<path class="st7" d="M12.7,8l3.9,3.8L20.4,8C17.9,6.8,15.2,6.8,12.7,8z"/>
		<path class="st7" d="M12.7,23.1l3.9-3.8l3.9,3.8C17.9,24.2,15.2,24.2,12.7,23.1z"/>
	</g>
</g>
<g id="Lager_8" class="st3">
	<g class="st4">
		<path class="st5" d="M25.5,24.3H7c-0.7,0-1.2-0.3-1.5-0.8s-0.3-1.2,0-1.8l9.3-16.1c0.3-0.6,1-0.8,1.5-0.8c0.7,0,1.2,0.3,1.5,0.8
			l9.3,16.1c0.3,0.6,0.3,1.2,0,1.8C26.8,24,26.2,24.3,25.5,24.3z"/>
		<polygon class="st6" points="7.4,22.2 16.3,7 25.1,22.2 		"/>
		<path class="st7" d="M18.5,20h1.1h1v0.3c0,0.3,0.3,0.4,0.4,0.4c0.3,0,0.4-0.3,0.4-0.4v-0.6l0.1-0.7c0.1-0.4,0-0.8-0.4-1.1
			l-0.6-1.1c0-0.1-0.1-0.3-0.3-0.3c-0.4-0.1-0.8-0.1-1.4-0.1l-0.4-0.8c0-0.1-0.1-0.3-0.3-0.3c-0.4-0.1-0.8-0.1-1.4-0.1l-0.4-0.8
			c0-0.1-0.1-0.3-0.3-0.3c-0.8-0.3-1.8-0.3-2.6,0c-0.1,0-0.3,0.1-0.3,0.3l-0.6,1.1c-0.3,0.3-0.4,0.7-0.4,1.1l0.1,0.7v0.6
			c0,0.1,0.1,0.3,0.3,0.4c0.1,0.1,0.3,0.1,0.4,0c0.1-0.1,0.3-0.3,0.3-0.4v-0.3h1c0,0.1,0,0.1,0,0.3l0.1,0.7V19
			c0,0.1,0.1,0.3,0.3,0.4c0.1,0.1,0.3,0.1,0.4,0c0.1-0.1,0.3-0.3,0.3-0.4v-0.3h1c0,0.1,0,0.1,0,0.3l0.1,0.7v0.6
			c0,0.1,0.1,0.3,0.3,0.4c0.1,0.1,0.3,0.1,0.4,0c0.1-0.1,0.3-0.3,0.3-0.4V20H18.5L18.5,20z"/>
		<path class="st6" d="M17.5,16.8l0.1-0.1c0.3,0,0.6-0.1,0.7-0.1L18.1,16c-0.8-0.1-1.7-0.1-2.4,0l-0.4,0.8H17.5z"/>
		<path class="st6" d="M17.8,17.2L17.4,18h3.2l-0.4-0.8C19.5,16.9,18.6,16.9,17.8,17.2z"/>
		<path class="st6" d="M15.4,15.5l0.1-0.1c0.3,0,0.6-0.1,0.7-0.1L16,14.7c-0.8-0.1-1.7-0.1-2.4,0l-0.4,0.8H15.4z"/>
	</g>
</g>
<g id="Lager_5" class="st3">
	<g class="st4">
		<path class="st5" d="M17.8,5.6c-0.3-0.6-1-0.8-1.5-0.8c-0.7,0-1.2,0.3-1.5,0.8L5.5,21.6c-0.3,0.6-0.3,1.2,0,1.8
			c0.3,0.6,1,0.8,1.5,0.8h18.5c0.7,0,1.2-0.3,1.5-0.8c0.3-0.6,0.3-1.2,0-1.8L17.8,5.6z"/>
		<polygon class="st11" points="7.4,22.3 16.3,7.1 25.1,22.3 		"/>
		<path class="st7" d="M23.2,14.8H9.4L8,17.2c0.1,0,0.3,0,0.4,0h15.5c0.1,0,0.4,0,0.6-0.1L23.2,14.8z"/>
	</g>
</g>
<g id="Lager_9" class="st3">
	<g class="st4">
		<path class="st5" d="M7,24.3c-0.7,0-1.2-0.3-1.5-0.8c-0.3-0.6-0.3-1.2,0-1.8l9.3-16.1c0.3-0.6,1-0.8,1.5-0.8
			c0.7,0,1.2,0.3,1.5,0.8l9.3,16.1c0.3,0.6,0.3,1.2,0,1.8s-1,0.8-1.5,0.8H7L7,24.3z"/>
		<polygon class="st6" points="7.4,22.2 25.1,22.2 16.3,7 		"/>
		<path class="st7" d="M23.3,21.1v0.3H9.1v-0.1c0-0.1,0.1-0.3,0.1-0.6c0-0.1,0.1-0.3,0.1-0.4c0-0.1,0.1-0.1,0.1-0.3l0,0l0,0l0.1-0.3
			c0,0,0-0.1,0.1-0.1l0.1-0.1c0.1-0.1,0.1-0.1,0.3-0.3c0-0.1,0.1-0.1,0.3-0.3l0.1-0.1l0.1-0.1c0-0.1,0.1-0.3,0.3-0.3
			c0.1-0.1,0.3-0.1,0.6-0.1c0.1,0,0.1,0,0.3,0.1c0.1,0.1,0.3,0.1,0.4,0.3h0.1c0.4-0.1,0.7-0.4,1.1-0.6h0.1l0.1-0.1l0.1-0.1l0.1-0.1
			c0.3-0.1,0.6-0.3,0.8-0.4l0.1-0.1l0.3-0.3c0,0,0,0,0-0.1c0-0.1,0-0.1,0-0.3c0-0.1,0-0.3,0-0.4c0-0.1,0-0.3,0-0.3
			c0-0.1,0-0.3,0-0.6V15c0,0,0,0,0-0.1l-0.1-0.4L14.9,14c0-0.1-0.1-0.1-0.1-0.3s0-0.1,0-0.3v-0.1v-0.1c0,0,0,0-0.1,0h-0.1
			c-0.1-0.1-0.1-0.3-0.3-0.4v-0.1v-0.1c0,0-0.1-0.1-0.1-0.3c0-0.1,0-0.1,0-0.3s0.1-0.1,0.1-0.3c0.1,0,0.1-0.1,0.3-0.1
			c0.1,0,0.3,0,0.3-0.1h0.1l0.1,0.1l0.1,0.1c0,0,0,0.1,0,0.3v0.1c0,0.1,0,0.1,0.1,0.3c0,0,0,0.1,0.1,0.1l0.1,0.1h0.1
			c0.1,0,0.1,0,0.3,0s0.1,0,0.3,0s0.3-0.1,0.4-0.1c0.1,0,0.1,0,0.3,0c0.6,0.1,1,0.3,1.4,0.6c0,0,0.1,0,0.1,0.1l0.1,0.1
			c0,0.1,0,0.1,0,0.3c0,0.3,0,0.4,0.1,0.7c0,0.1,0.1,0.3,0.1,0.4c0,0,0,0,0.1,0.1c0.1,0,0.1,0.1,0.1,0.1c0,0.1,0,0.1,0,0.3
			c0,0-0.1,0-0.1,0.1h-0.1l0,0v1v0.7v0.4v0.3V18v0.3c0,0.3,0,0.6,0,0.8c0,0.1,0,0.3,0,0.4V20v0.4v0.4v0.1c0,0.1,0,0.1,0.1,0.1l0,0
			l0.1-0.1v-0.1v-0.1v-0.1l0,0h0.1h0.1c0.1,0,0.3-0.1,0.3-0.3l0,0h0.1c0.1,0,0.1,0,0.1,0l0.1,0.1c0.1,0.4,0.4,0.7,0.7,1l0.1,0.1
			L23.3,21.1L23.3,21.1z"/>
		<path class="st6" d="M12.3,18.6L12.3,18.6h0.3c0.1,0,0.3-0.1,0.4-0.1c0.1,0,0.1-0.1,0.3-0.1s0.3-0.1,0.3-0.3l0.1-0.1l0.1-0.1
			l0.1-0.1l0.1-0.1h0.1h0.1h0.1h0.1h0.1h0.1H15l0,0l0,0h0.1l0.3,0.7l0,0l0,0l0.1,0.3l0.1,0.4v0.3v0.1l0.1,0.4v0.1c0,0,0,0.1,0.1,0.1
			l0,0h0.1h0.1c0,0,0.1,0.1,0.1,0.3l0,0l-0.1,0.1l0,0L16,20.5l0,0v0.1h-0.1c-0.1,0-0.4,0-0.6,0c-0.1,0-0.3,0-0.4,0.1
			c-0.1,0-0.3,0-0.4,0c-0.1,0-0.1,0-0.3,0h-0.1c-0.1,0-0.1,0-0.3-0.1l-0.1-0.1l-0.1-0.1l-0.1-0.1l-0.1-0.1L13.1,20L13,19.8v-0.1
			l-0.1-0.1v-0.1v-0.1l0,0C12.7,18.9,12.4,18.7,12.3,18.6L12.3,18.6z"/>
		<path class="st6" d="M16.3,20.7l0.4-0.3l0,0h0.1H17l0.3-0.1l0,0c0-0.1,0-0.1-0.1-0.3c0-0.1-0.1-0.1-0.1-0.3v-0.1
			c0-0.3,0-0.4-0.1-0.7c0-0.3-0.1-0.4-0.3-0.7c0-0.1,0-0.3-0.1-0.3c0,0,0,0,0-0.1l0,0l0.1-0.1l0.1-0.1l0.1-0.1l0.1-0.1l0.1-0.1
			l0.3-0.3l0,0l0,0c0,0,0,0,0-0.1l0,0l0.1-0.1h0.1c0,0,0,0,0.1,0c0,0,0,0.1,0.1,0.1v0.1v0.1v0.3c0,0.1,0,0.3,0,0.4
			c0,0.1,0,0.3,0,0.3s0,0.1,0.1,0.1c0.1,0.1,0.1,0.3,0.1,0.4c0,0.1,0,0.3,0,0.3c0,0.1,0,0.3,0,0.6c0,0.1,0,0.1,0,0.3l0,0l0,0h0.1
			l0,0c0,0.1,0,0.3,0,0.4c0,0,0,0.1-0.1,0.1h-0.1c0,0-0.1,0-0.1,0.1c0,0,0,0,0,0.1c0,0,0,0.1-0.1,0.1h-0.1c-0.1,0-0.1,0-0.3,0h-0.3
			h-0.3h-0.3h-0.1h-0.3H16L16.3,20.7L16.3,20.7z"/>
		<path class="st6" d="M17.9,13.3h0.1h0.1h0.3l0,0v0.1v0.1v0.1v0.1V14v0.1v0.1v0.1v0.1l0,0c0,0,0,0,0,0.1c0,0.1,0,0,0,0l0,0
			l-0.1-0.1l-0.1-0.1v-0.1v-0.1V14c0,0,0-0.1-0.1-0.1l-0.1-0.1l-0.1-0.1L17.9,13.3C17.8,13.3,17.8,13.3,17.9,13.3
			C17.8,13.3,17.8,13.3,17.9,13.3L17.9,13.3C17.8,13.3,17.8,13.3,17.9,13.3z"/>
		<path class="st17" d="M15.9,16.1L15.9,16.1"/>
		<path class="st6" d="M16,16.1L16,16.1c0.1-0.1,0.1-0.1,0.3-0.3l0.1-0.1c0,0,0-0.1,0.1-0.1c0,0,0-0.1,0.1-0.1c0,0,0.1-0.1,0.1-0.3
			V15v-0.1l0,0c0,0,0,0,0-0.1l-0.1-0.1l-0.1-0.1c0,0,0,0-0.1,0l0,0v0.1c0,0,0,0,0,0.1v0.1c0,0.1,0,0.1,0,0.3s-0.1,0.3-0.1,0.4v0.1
			L16,16.1C15.9,16,15.9,16,16,16.1C15.9,16.1,15.9,16.1,16,16.1z"/>
	</g>
</g>
<g id="Lager_10" class="st3">
	<g class="st4">
		<path class="st5" d="M7,24.3c-0.7,0-1.2-0.3-1.5-0.8c-0.3-0.6-0.3-1.2,0-1.8l9.3-16.1c0.3-0.6,1-0.8,1.5-0.8
			c0.7,0,1.2,0.3,1.5,0.8l9.3,16.1c0.3,0.6,0.3,1.2,0,1.8c-0.3,0.6-1,0.8-1.5,0.8H7L7,24.3z"/>
		<polygon class="st8" points="7.4,22.3 25.1,22.3 16.3,7.1 		"/>
		<path class="st7" d="M23.3,21.2v0.3H9.1v-0.1c0-0.1,0.1-0.4,0.1-0.6c0-0.1,0.1-0.3,0.1-0.4s0.1-0.1,0.1-0.3l0,0l0,0l0.1-0.3
			c0,0,0-0.1,0.1-0.1l0.1-0.1c0.1-0.1,0.1-0.1,0.3-0.3c0-0.1,0.1-0.1,0.3-0.3l0.1-0.1l0.1-0.1c0-0.1,0.1-0.3,0.3-0.3
			c0.1-0.1,0.3-0.1,0.6-0.1c0.1,0,0.1,0,0.3,0.1c0.1,0.1,0.3,0.1,0.4,0.3h0.1c0.4-0.1,0.7-0.4,1.1-0.6h0.1l0.1-0.1l0.1-0.1l0.1-0.1
			c0.3-0.1,0.6-0.3,0.8-0.4l0.1-0.1l0.3-0.3c0,0,0,0,0-0.1s0-0.1,0-0.3c0-0.1,0-0.3,0-0.4s0-0.3,0-0.3c0-0.1,0-0.3,0-0.6v-0.1
			c0,0,0,0,0-0.1l-0.1-0.4l-0.3-0.4c0-0.1-0.1-0.1-0.1-0.3s0-0.1,0-0.3v-0.1v-0.3c0,0,0,0-0.1,0h-0.1c-0.1-0.1-0.1-0.3-0.3-0.4v-0.1
			v-0.1c0,0-0.1-0.1-0.1-0.3s0-0.1,0-0.3c0-0.1,0.1-0.1,0.1-0.3c0.1,0,0.1-0.1,0.3-0.1s0.3,0,0.3-0.1h0.1l0.1,0.1l0.1,0.1
			c0,0,0,0.1,0,0.3v0.1c0,0.1,0,0.1,0.1,0.3c0,0,0,0.1,0.1,0.1l0.1,0.1h0.1c0.1,0,0.1,0,0.3,0s0.1,0,0.3,0s0.3-0.1,0.4-0.1
			c0.1,0,0.1,0,0.3,0c0.6,0.1,1,0.3,1.4,0.6c0,0,0.1,0,0.1,0.1l0.1,0.1c0,0.1,0,0.1,0,0.3c0,0.3,0,0.4,0.1,0.7
			c0,0.1,0.1,0.3,0.1,0.4c0,0,0,0,0.1,0.1c0.1,0,0.1,0.1,0.1,0.1c0,0.1,0,0.1,0,0.3c0,0-0.1,0-0.1,0.1h-0.1l0,0v1v0.7v0.4v0.3V18
			v0.3c0,0.3,0,0.6,0,0.8c0,0.1,0,0.3,0,0.4V20v0.4v0.4v0.1c0,0.1,0,0.1,0.1,0.1l0,0l0.1-0.1v-0.1v-0.1v-0.1l0,0h0.1h0.1
			c0.1,0,0.3-0.1,0.3-0.3l0,0h0.1c0.1,0,0.1,0,0.1,0l0.1,0.1c0.1,0.4,0.4,0.7,0.7,1l0.1,0.1L23.3,21.2L23.3,21.2z"/>
		<path class="st8" d="M12.3,18.7L12.3,18.7h0.3c0.1,0,0.3-0.1,0.4-0.1s0.1-0.1,0.3-0.1s0.3-0.1,0.3-0.3l0.1-0.1l0.1-0.1l0.1-0.1
			l0.1-0.1h0.1h0.1h0.1h0.1h0.1h0.1H15l0,0l0,0h0.1l0.3,0.7l0,0l0,0l0.1,0.4l0.1,0.4v0.3v0.1l0.1,0.4v0.1c0,0,0,0.1,0.1,0.1l0,0h0.1
			h0.1c0,0,0.1,0.1,0.1,0.3l0,0l-0.1,0.1l0,0L16,20.8l0,0v0.1h-0.1c-0.1,0-0.4,0-0.6,0c-0.1,0-0.3,0-0.4,0.1c-0.1,0-0.3,0-0.4,0
			c-0.1,0-0.1,0-0.3,0h-0.1c-0.1,0-0.1,0-0.3-0.1l-0.1-0.1l-0.1-0.1l-0.1-0.1l-0.1-0.1l-0.1-0.1L13,20.1V20l-0.1-0.1v-0.1v-0.1l0,0
			C12.7,19,12.4,18.9,12.3,18.7L12.3,18.7z"/>
		<path class="st8" d="M16.3,20.8l0.4-0.3l0,0h0.1H17l0.3-0.1l0,0c0-0.1,0-0.1-0.1-0.3c0-0.1-0.1-0.1-0.1-0.3v-0.1
			c0-0.3,0-0.4-0.1-0.7c0-0.3-0.1-0.4-0.3-0.7c0-0.1,0-0.3-0.1-0.3c0,0,0,0,0-0.1l0,0l0.1-0.1l0.1-0.1l0.1-0.1l0.1-0.1l0.1-0.1
			l0.3-0.4l0,0l0,0c0,0,0,0,0-0.1l0,0l0.1-0.1h0.1c0,0,0,0,0.1,0c0,0,0,0.1,0.1,0.1v0.1v0.1v0.3c0,0.1,0,0.3,0,0.4s0,0.3,0,0.3
			s0,0.1,0.1,0.1c0.1,0.1,0.1,0.3,0.1,0.4c0,0.1,0,0.3,0,0.3c0,0.1,0,0.4,0,0.6s0,0.1,0,0.3l0,0l0,0h0.1l0,0c0,0.1,0,0.3,0,0.4
			c0,0,0,0.1-0.1,0.1h-0.1c0,0-0.1,0-0.1,0.1c0,0,0,0,0,0.1c0,0,0,0.1-0.1,0.1s-0.1,0-0.1,0c-0.1,0-0.1,0-0.3,0h-0.3h-0.3h-0.3h-0.1
			h-0.3H16L16.3,20.8L16.3,20.8z"/>
		<path class="st8" d="M17.9,13.5L17.9,13.5h0.3h0.3l0,0v0.1v0.1v0.1V14v0.1v0.1v0.1v0.1v0.1l0,0c0,0,0,0,0,0.1l0,0l0,0l-0.1-0.1
			l-0.1-0.1v-0.1v-0.1v-0.1c0,0,0-0.1-0.1-0.1l-0.1-0.1l-0.1-0.1L17.9,13.5C17.8,13.5,17.8,13.5,17.9,13.5
			C17.8,13.5,17.8,13.5,17.9,13.5L17.9,13.5C17.8,13.5,17.8,13.5,17.9,13.5z"/>
		<path class="st17" d="M15.9,16.2L15.9,16.2"/>
		<path class="st8" d="M16,16.2L16,16.2c0.1-0.1,0.1-0.1,0.3-0.3l0.1-0.1c0,0,0-0.1,0.1-0.1c0,0,0-0.1,0.1-0.1c0,0,0.1-0.1,0.1-0.3
			v-0.1V15l0,0c0,0,0,0,0-0.1l-0.1-0.1l-0.1-0.1c0,0,0,0-0.1,0l0,0v0c0,0,0,0,0,0.1v0.1c0,0.1,0,0.1,0,0.3c0,0.1-0.1,0.3-0.1,0.4
			v0.1L16,16.2C15.9,16.1,15.9,16.2,16,16.2C15.9,16.2,15.9,16.2,16,16.2z"/>
	</g>
</g>
<g id="Lager_12" class="st3">
	<g class="st4">
		<path class="st5" d="M14.8,5.6L5.5,21.6c-0.3,0.6-0.3,1.2,0,1.8c0.3,0.6,1,0.8,1.5,0.8h18.5c0.7,0,1.2-0.3,1.5-0.8
			c0.3-0.6,0.3-1.2,0-1.8L17.8,5.6c-0.3-0.6-1-0.8-1.5-0.8C15.6,4.6,15,5,14.8,5.6z"/>
		<polygon class="st6" points="7.4,22.1 16.3,6.9 25.1,22.1 		"/>
		<path class="st7" d="M15.9,20C15.7,20,15.7,20,15.9,20c-0.1,0.1-0.1,0.1-0.3,0.1c-0.4,0.3-1,0.3-1.4,0.1c0,0,0,0-0.1,0
			c-0.6-0.6-1.4-0.6-1.9,0v-1.8l5.7-5.7l-1.1-1.1l-5.8,5.8l1,1h-1.1l-1.8,3h14.7l-1.8-3h-1.4v1.8c-0.6-0.6-1.4-0.6-2.1,0
			c0,0,0,0-0.1,0.1c-0.4,0.3-0.8,0.1-1.2-0.1l-0.1-0.1C16.8,19.7,16.3,19.7,15.9,20z"/>
	</g>
</g>
<g id="Lager_13" class="st3">
	<g class="st4">
		<circle class="st5" cx="16.6" cy="15.6" r="11"/>
		<circle class="st6" cx="16.6" cy="15.6" r="8.1"/>
	</g>
</g>
<g id="Lager_14" class="st3">
	<g class="st4">
		<circle class="st5" cx="16.6" cy="15.6" r="11"/>
		<circle class="st8" cx="16.6" cy="15.6" r="8.1"/>
	</g>
</g>
<g id="Lager_15" class="st3">
	<g class="st4">
		<rect x="7.3" y="6.2" transform="matrix(0.5 -0.866 0.866 0.5 -5.8988 12.8554)" class="st5" width="1.8" height="10.7"/>
		<rect x="8.3" y="4.1" transform="matrix(0.5 -0.866 0.866 0.5 -3.5818 12.7035)" class="st6" width="1.8" height="10.7"/>
		<polygon class="st18" points="14.9,7.7 14.9,11.7 16,12.4 16,7.7 		"/>
		<polygon class="st18" points="16.7,7.7 16.7,12.4 18.1,11.7 18.1,7.7 		"/>
		<rect x="16" y="8" class="st18" width="0.7" height="0.7"/>
		<rect x="18.3" y="8.7" transform="matrix(0.866 -0.5 0.5 0.866 -1.6645 13.0541)" class="st6" width="10.5" height="1.8"/>
		<rect x="19.5" y="10.6" transform="matrix(0.866 -0.5 0.5 0.866 -2.4558 13.941)" class="st5" width="10.5" height="1.8"/>
		<rect x="23.8" y="13.4" transform="matrix(0.5 -0.866 0.866 0.5 -3.733 30.6534)" class="st5" width="1.8" height="10.4"/>
		<rect x="22.6" y="15.3" transform="matrix(0.5 -0.866 0.866 0.5 -5.966 30.5626)" class="st6" width="1.8" height="10.4"/>
		<polygon class="st18" points="16.7,24.4 16.7,17.6 18.1,18.4 18.1,24.4 		"/>
		<polygon class="st18" points="16,24.4 16,17.6 14.9,18.3 14.9,24.4 		"/>
		<rect x="2.9" y="17.5" transform="matrix(0.866 -0.5 0.5 0.866 -8.1049 6.5236)" class="st5" width="10.5" height="1.8"/>
		<rect x="4.1" y="19.6" transform="matrix(0.866 -0.5 0.5 0.866 -9.0147 7.423)" class="st6" width="10.5" height="1.8"/>
		<polygon class="st18" points="20.6,15.1 19.7,16.6 20.6,15.1 19.7,13.4 28.8,8 28.6,7.7 19.4,13.1 18.6,11.4 16.4,12.6 14.4,11.4 
			13.4,13.1 4.2,7.7 4,8 13.2,13.4 12.2,15.1 13.2,16.6 4,21.9 4.3,22.3 13.4,17.1 14.4,18.6 16.4,17.4 18.6,18.6 19.4,17.1 
			28.4,22.3 28.8,21.9 19.7,16.6 		"/>
	</g>
</g>
<g id="Lager_16" class="st3">
	<text transform="matrix(1 0 0 1 10.7967 23.3976)" class="st4 st19 st20"></text>
</g>
<g id="Lager_17">
	<rect x="5.2" y="4.1" class="st21" width="21.8" height="21.8"/>
	<polygon class="st11" points="8.9,20.5 8,20.5 6.7,20.5 6.7,18.9 13.1,18.9 13.1,20.5 11,20.5 11,22.8 18,22.8 18,17.1 12.4,17.1 
		15.7,13.8 14.3,13.8 17.7,10.4 16.2,10.4 19,5.6 21.8,10.4 20.3,10.4 23.7,13.8 22.2,13.8 25.5,17.1 19.9,17.1 19.9,22.8 
		25.5,22.8 25.5,24.5 6.7,24.5 6.7,22.8 6.7,22.8 8,22.8 8.9,22.8 	"/>
</g>
<g id="Lager_18" class="st3">
	<rect x="5.2" y="4.1" class="st22" width="21.8" height="21.8"/>
	<polygon class="st23" points="8.9,20.5 8,20.5 6.7,20.5 6.7,18.9 13.1,18.9 13.1,20.5 11,20.5 11,22.8 18,22.8 18,17.1 12.4,17.1 
		15.7,13.8 14.3,13.8 17.7,10.4 16.2,10.4 19,5.6 21.8,10.4 20.3,10.4 23.7,13.8 22.2,13.8 25.5,17.1 19.9,17.1 19.9,22.8 
		25.5,22.8 25.5,24.5 6.7,24.5 6.7,22.8 6.7,22.8 8,22.8 8.9,22.8 	"/>
</g>
<g id="Lager_19" class="st3">
	<rect x="5.2" y="4.1" class="st24" width="21.8" height="21.8"/>
	<polygon class="st23" points="8.9,20.5 8,20.5 6.7,20.5 6.7,18.9 13.1,18.9 13.1,20.5 11,20.5 11,22.8 18,22.8 18,17.1 12.4,17.1 
		15.7,13.8 14.3,13.8 17.7,10.4 16.2,10.4 19,5.6 21.8,10.4 20.3,10.4 23.7,13.8 22.2,13.8 25.5,17.1 19.9,17.1 19.9,22.8 
		25.5,22.8 25.5,24.5 6.7,24.5 6.7,22.8 6.7,22.8 8,22.8 8.9,22.8 	"/>
</g>
</svg>
